<svg xmlns="http://www.w3.org/2000/svg" viewBox="0 0 24 24" fill="none">
  <rect width="24" height="24" fill="#000000" />
  <path d="M12 3C13.1046 3 14 3.89543 14 5C14 6.10457 13.1046 7 12 7C10.8954 7 10 6.10457 10 5C10 3.89543 10.8954 3 12 3Z" fill="#4169E1" />
  <path d="M19 9H5C4.44772 9 4 9.44772 4 10V17C4 17.5523 4.44772 18 5 18H19C19.5523 18 20 17.5523 20 17V10C20 9.44772 19.5523 9 19 9Z" fill="#4169E1" />
  <path d="M9 12C9 13.1046 8.55228 14 8 14C7.44772 14 7 13.1046 7 12C7 10.8954 7.44772 10 8 10C8.55228 10 9 10.8954 9 12Z" fill="#000000" />
  <path d="M17 12C17 13.1046 16.5523 14 16 14C15.4477 14 15 13.1046 15 12C15 10.8954 15.4477 10 16 10C16.5523 10 17 10.8954 17 12Z" fill="#000000" />
  <path d="M10 14.5C10 14.2239 10.2239 14 10.5 14H13.5C13.7761 14 14 14.2239 14 14.5C14 14.7761 13.7761 15 13.5 15H10.5C10.2239 15 10 14.7761 10 14.5Z" fill="#000000" />
  <path d="M3 12C3 12.5523 2.55228 13 2 13C1.44772 13 1 12.5523 1 12C1 11.4477 1.44772 11 2 11C2.55228 11 3 11.4477 3 12Z" fill="#4169E1" />
  <path d="M23 12C23 12.5523 22.5523 13 22 13C21.4477 13 21 12.5523 21 12C21 11.4477 21.4477 11 22 11C22.5523 11 23 11.4477 23 12Z" fill="#4169E1" />
</svg> 